<?xml version="1.0" encoding="utf-8"?>
<!-- Generator: Adobe Illustrator 17.1.0, SVG Export Plug-In . SVG Version: 6.00 Build 0)  -->
<!DOCTYPE svg PUBLIC "-//W3C//DTD SVG 1.1//EN" "http://www.w3.org/Graphics/SVG/1.1/DTD/svg11.dtd">
<svg version="1.1" id="Capa_1" xmlns="http://www.w3.org/2000/svg" xmlns:xlink="http://www.w3.org/1999/xlink" x="0px" y="0px"
	 viewBox="0 0 556 556" enable-background="new 0 0 556 556" xml:space="preserve">
<g>
	<g>
		<path fill="#FFFFFF" d="M9.5,226.1c1,5.6,2.4,11.1,3,16.7c1.4,12.5,3.9,25.1,3.4,37.5c-0.8,15.9-4.1,31.7-6.4,47.5
			c0.8-0.3,1.7-0.7,2.5-1c3.3,5,6.6,10,10.1,15.4c-1.4,4.6-3.1,10.1-5.1,16.4c2.4-1.9,4.3-3.4,4.8-3.8c1.3,7.4,2.6,15.4,4.2,24.6
			c2.6-2.1,3.4-2.8,3.9-3.3c0.7,3.6,1.4,7.2,2,10.8c0.4,0,0.9,0,1.3-0.1c0.7-2.8,1.4-5.6,2.1-8.5c0.7,0,1.3,0,2,0.1
			C47.6,409.2,60,438,62.5,469c0,0-1.8,5.6,2.2,8.1c4,2.5,44.8,2.9,48.5,0c3.6-2.9-8.6-17.1-17.7-21c-2.8-11.8-6.2-22.1-8.1-34.1
			c-1.9-12.1-2.7-24.5-3.2-36.8c-0.4-12.4,4.1-23.3,10.9-33.8c5.2-7.9,8.9-16.9,12.3-25.8c3.6-9.3,5.5-19.3,9-28.7
			c3-7.9,6.8-8,13.5-2.6c6.8,5.5,13.3,12.1,21.2,15.3c9.6,3.8,20.5,4.7,30.9,6.6c6.1,1.1,12.3,2.6,18.4,2.4
			c18.6-0.5,37.2-1.9,55.8-2.5c8.4-0.3,14.1,4.2,15.6,12.4c2.3,12.4,2.8,25.1,5.5,37.4c2.7,12.3,2.2,25,8.4,36.9
			c6.7,12.8,9.3,27.4,4.8,42c-1,3.4-3.7,6.8-6.6,8.8c0,0-3.4,17,0.5,20.8c3.9,3.9,24.1,2.4,35.2,1.4c0,0,28,5.8,39.1,2.4
			c11.1-3.4,5.3-10.1,4.3-14c-1-3.9-8.5-4.8-8.5-4.8c-1.5-2.9-6.6-4.1-7.2-7.2c-2.7-14.1-1.8-28.1,1.8-42.1
			c4.6-17.4,7.9-35.1,12.7-52.4c1.7-6,5.6-11.8,9.7-16.6c7.7-8.9,21.4-11,27.2-22.5c0.1-0.2,0.4-0.2,0.6-0.3
			c11.3-4,16.1-13.1,19.3-23.8c1.7-5.6,4.1-11,6.3-16.4c6.6-16,19.2-27.3,31.3-38.7c3.7-3.5,10-6.7,14.5-6.1
			c13.9,2.1,27.6,5.6,41.3-0.5c0.6-0.3,1.4-0.8,2-0.6c9.8,3.2,18.3-0.2,26.5-5.3c2.4-1.5,6.6-3.2,6.6-4.7
			c-0.1-6.8-0.2-14.1-2.8-20.1c-3.8-8.8-10.2-16.5-14.6-25.2c-3-5.9-3.1-12.7-0.6-19.6c2.1,0.7,3.4,1.2,4.8,1.6
			c9.2,3.3,15.7-2,14.8-11.5c-0.2-2.5,0.6-5.8,2.1-7.8c8.3-11,6.6-18-6.4-23.1c-2.5-1-5.6-1.2-8.4-1c-5.2,0.4-10.4,1.3-14.6,1.8
			c-2.8-3.9-4.3-8.3-7.3-9.8c-5-2.5-8.1-5.1-6.5-10.2c-8.6-3.2-16.7-6.2-25.6-9.5c2-1.1,3-1.6,4.1-2.1c-0.2-0.7-0.5-1.3-0.7-2
			c-7.5,2.3-15,4.6-22.7,6.9c0.2,4.6-0.1,9.3-7.3,8.8c-1.1-0.1-2.6,1.2-3.6,2.2c-4.2,4.3-8.4,6.6-14.5,3c-1.8-1.1-5.3-0.2-7.6,0.7
			c-7.1,2.7-13.3,7.2-22.1,6.1c-6.1-0.7-12.7,2.8-19.1,4.2c-14.8,3.1-29.4,3.6-43-4.8c-2-1.2-4.5-2-6.8-2.1
			c-9.6-0.2-19.3,0.2-29-0.2c-6.5-0.2-12.9-1.4-19.4-2.2c-3.2-0.4-6.5-1-9.7-1.3c-7.7-0.6-15.9,0.3-23.1-1.9
			c-6-1.8-12.2-1.3-16.6,0.1c-10,3.2-19.6,2.5-28.7-0.3c-29.2-8.8-59.2-13.1-89.3-16.8c-6.3-0.8-11.4-3.1-16.4-6.2
			c-3.8-2.3-7.2-5.2-11.4-2.1c-4.9-1.2-10.4-3-14.5-1.3c-5.8,2.4-13.4-0.8-17.6,5.9c-0.2,0.3-1.3,0-2-0.2
			c-7.9-1.6-14.3,2.7-19.9,6.8c-6.4,4.7-12.6,7.2-20.1,5.5c-3.3,4.1-2.6,11.1-9.9,11.4c-0.6,0-1.4,1.4-1.7,2.2
			c-1.9,6.4-3,13-5.5,19.2c-4.8,12-2.6,24.6-3.9,36.8c-0.4,3.7-0.1,7.5,0.5,11.2C3.5,192.8,6.5,209.5,9.5,226.1z M317.7,411.4
			c0.6,0,1.3-0.1,1.9-0.1c1,7.4,2.6,14.8,2.9,22.3c0.3,7.6,1.8,15.6-2.7,23.9C314.6,441.4,312.3,426.5,317.7,411.4z"/>
	</g>
</g>
<text transform="matrix(1 0 0 1 166 250)" fill="#E67E22" font-family="'CooperBlack'" font-size="110">Dé</text>
</svg>
